<svg xmlns="http://www.w3.org/2000/svg" viewBox="0 0 64 64">
  <defs>
    <linearGradient id="aineIconGradient" x1="8" y1="6" x2="56" y2="58" gradientUnits="userSpaceOnUse">
      <stop offset="0%" stop-color="#7DD9C9" />
      <stop offset="55%" stop-color="#9AD5C0" />
      <stop offset="100%" stop-color="#6B6BB5" />
    </linearGradient>
  </defs>
  <rect x="4" y="4" width="56" height="56" rx="16" fill="url(#aineIconGradient)" />
  <path
    d="M32 14c-10.5 0-19 8.5-19 19 0 8.3 5 15.5 12.1 18.3l5.6-15.2h-7l-3.7 10c-4.2-3.3-6.9-8.5-6.9-14.2 0-9.9 8-17.9 17.9-17.9 9.9 0 17.9 8 17.9 17.9 0 5.7-2.7 10.9-6.9 14.2l-3.7-10h-7l5.6 15.2C46 48.5 51 41.3 51 33c0-10.5-8.5-19-19-19z"
    fill="#f7f4fb"
  />
</svg>
